<svg xmlns="http://www.w3.org/2000/svg" id="Logo" viewBox="0 0 853.35 785.26"><defs><style>      .cls-1 {        fill: #2e3d1a;      }      .cls-1, .cls-2 {        stroke-width: 0px;      }      .cls-2 {        fill: #fff;      }    </style></defs><path class="cls-2" d="M853.15,330.81l-18.14,129.38c-1.42,10.14-10.21,17.78-20.45,17.78h0c-3.53,0-6.61,2.42-7.43,5.86-41.12,172.86-196.53,301.43-381.98,301.43S82.56,655.26,42.5,480.94c-.4-1.74-1.93-2.97-3.71-2.97-10.23,0-19.02-7.65-20.45-17.78L.2,330.81c-1.05-7.48,2.06-15.06,8.41-19.65,3.63-2.62,8.07-3.87,12.55-3.87h17.63c1.78,0,3.31-1.23,3.71-2.97C82.56,130.01,238.67,0,425.15,0s340.2,128.03,381.72,300.34c.98,4.08,4.63,6.95,8.82,6.95h16.5c4.48,0,8.92,1.25,12.55,3.87,6.35,4.59,9.45,12.17,8.4,19.64Z"></path><path class="cls-1" d="M277.28,529.71v33.71c0,15.84,12.69,28.74,28.29,28.74h0c.69,0,1.39-.03,2.09-.08,14.7-1.08,26.21-13.47,26.21-28.22v-34.15h182.55v33.71c0,15.84,12.69,28.74,28.29,28.74h0c.69,0,1.39-.03,2.09-.08,14.7-1.08,26.21-13.47,26.21-28.22v-34.15h52.77c3.79,0,5.96,4.27,3.77,7.36-45.33,64.03-119.98,105.84-204.41,105.84s-159.07-41.81-204.41-105.84c-2.19-3.09-.02-7.36,3.77-7.36h52.77ZM536.55,563.42c1.1,0,2-7.51,2-16.77v-24.1c0-.36.03-.57.03-.86.11-1.08.47-2.13,1.04-3.04.59-.9,1.37-1.67,2.29-2.17,1.51-.84,3.27-.96,4.77-.57,1.5.39,2.75,1.25,3.59,2.19,1.74,1.9,2.01,3.83,2.61,3.81.25,0,.57-.48.65-1.44.08-.94-.06-2.41-.94-3.98-.83-1.57-2.45-3.22-4.77-4.09-1.16-.43-2.46-.66-3.82-.59-1.36.07-2.77.46-4.04,1.16-1.53.84-2.8,2.09-3.74,3.53-.91,1.46-1.48,3.12-1.64,4.82-.02.41-.05.89-.05,1.23v24.1c0,9.26.89,16.77,2,16.77ZM297.41,563.42c1.1,0,2-7.51,2-16.77v-24.1c0-.36.03-.57.03-.86.11-1.08.47-2.13,1.04-3.04.59-.9,1.37-1.67,2.29-2.17,1.51-.84,3.27-.96,4.77-.57,1.5.39,2.75,1.25,3.59,2.19,1.74,1.9,2.01,3.83,2.61,3.81.25,0,.57-.48.65-1.44.08-.94-.06-2.41-.94-3.98-.83-1.57-2.45-3.22-4.77-4.09-1.16-.43-2.46-.66-3.82-.59-1.36.07-2.77.46-4.04,1.16-1.53.84-2.8,2.09-3.74,3.53-.91,1.46-1.48,3.12-1.64,4.82-.02.41-.05.89-.05,1.23v24.1c0,9.26.89,16.77,2,16.77ZM792.26,484.45c-41.03,164.58-189.83,286.52-367.11,286.52S99.07,649.03,58.04,484.45c-1.07-4.31,2.2-8.48,6.64-8.48h104.59c2.88,0,5.47,1.81,6.43,4.53,12.95,36.85,34.1,70.62,62.54,99.05,49.93,49.93,116.31,77.42,186.92,77.42s136.99-27.5,186.92-77.42c28.43-28.43,49.59-62.2,62.54-99.05.96-2.72,3.55-4.53,6.43-4.53h104.59c4.44,0,7.72,4.17,6.64,8.48ZM156.53,574.48l-17.66-35.04,17.26-8.7-40.12-36.39,17.66,35.04-17.26,8.7,40.12,36.39ZM193.85,620.01c4.5-.03,8.23-1.42,11.2-4.16,1.67-1.55,2.95-3.38,3.84-5.48.88-2.1,1.15-4.32.78-6.66s-1.53-4.56-3.48-6.67l-6.12-6.6c-.65-.71-1.38-1.11-2.18-1.21-.8-.1-1.45.08-1.95.54l-27.1,25.13c-.5.46-.74,1.1-.71,1.93.03.82.37,1.58,1.02,2.29l1.26,1.36c.63.67,1.28,1,1.96.96.68-.03,1.29-.29,1.81-.78l6.12-5.67c1.32-1.22,2.7-1.06,4.14.5.46.5.73,1.04.81,1.62.08.58-.08,1.16-.47,1.74-.96,1.49-1.84,3.3-2.62,5.42-.79,2.12-1.13,4.5-1.03,7.14-.03.68.17,1.24.57,1.68.71.76,1.84,1.13,3.4,1.1l1.4-.08c.6-.06,1.09-.27,1.47-.62.32-.3.56-.69.72-1.16.16-.47.23-.98.23-1.52-.06-1.53.14-3.05.6-4.56.45-1.51.99-2.8,1.61-3.87.62-1.07,1.09-1.72,1.41-1.96.06-.05.2-.13.43-.24.23-.11.53-.16.9-.18ZM206.81,651.52l23.62-27.25c.52-.6.75-1.32.68-2.15-.07-.83-.43-1.52-1.06-2.07l-1.36-1.18c-.61-.52-1.32-.76-2.16-.72-.83.04-1.51.37-2.04.97l-23.62,27.25c-.55.63-.79,1.37-.72,2.2s.41,1.51,1.02,2.03l1.36,1.18c.63.55,1.37.8,2.2.76.83-.04,1.53-.38,2.08-1.02ZM237.08,674.52l28.32-24.47c.25-.22.41-.38.47-.47.34-.49.46-1.05.34-1.66-.11-.61-.46-1.12-1.06-1.53l-1.83-1.26c-.66-.46-1.43-.64-2.32-.55-.89.09-1.65.45-2.28,1.08-1,.96-4.26,3.89-9.76,8.79-5.51,4.9-9.25,8.22-11.23,9.96l10.24-26.19c.31-.8.35-1.65.12-2.54-.23-.89-.71-1.59-1.44-2.09l-1.63-1.13c-.59-.41-1.21-.57-1.86-.48-.65.09-1.15.4-1.51.92-.16.23-.26.41-.29.53l-12.73,35.26c-.26.79-.26,1.62,0,2.48s.7,1.5,1.32,1.94l2.37,1.64c.72.5,1.54.73,2.43.7s1.67-.34,2.31-.92ZM267.6,692.53l17.16-31.72c.38-.7.45-1.45.19-2.25-.25-.79-.75-1.39-1.49-1.79l-1.58-.86c-.7-.38-1.46-.46-2.26-.23-.8.22-1.4.69-1.78,1.39l-17.16,31.72c-.4.74-.47,1.51-.22,2.3.25.8.73,1.38,1.43,1.76l1.58.86c.74.4,1.51.49,2.31.26.8-.22,1.41-.71,1.81-1.44ZM314.63,672.24c-.4-.81-.99-1.38-1.77-1.7l-2.83-1.16c-.74-.3-1.54-.3-2.4,0-.86.3-1.53.78-2.02,1.45l-20.81,29.03c-.38.49-.66.98-.86,1.46-.39.96-.4,1.71,0,2.23.39.53.99.96,1.81,1.29l1.17.48c.85.35,1.61.44,2.28.28s1.36-.68,2.06-1.55l2.08-2.71c.1-.13.37-.48.81-1.03s.92-.91,1.44-1.06c.52-.16,1.09-.11,1.72.15l3.5,1.43c.93.38,1.44.88,1.55,1.51.11.63.06,1.51-.14,2.63l-.42,3.4c-.11,1.12.01,1.97.38,2.55.37.58,1,1.05,1.88,1.42l1.22.5c1.92.79,3.23.35,3.91-1.32.17-.41.29-.87.38-1.4l5.47-35.42c.12-.82-.03-1.63-.43-2.44ZM361.24,686.55c-.41-.73-.99-1.18-1.72-1.37l-.93-.24c-.89-.23-1.7-.13-2.43.3s-1.21,1.09-1.44,1.98l-4.9,18.94c-.24.93-.46,1.37-.65,1.32-.12-.03-.27-.46-.47-1.3l-5.03-22.99c-.12-.65-.43-1.24-.94-1.76-.51-.52-1.14-.88-1.92-1.08l-1.68-.44c-.89-.23-1.7-.13-2.43.3-.73.43-1.21,1.09-1.44,1.98l-8.94,34.56c-.22.85-.11,1.65.34,2.38.45.74,1.1,1.21,1.95,1.43l.64.17c.81.21,1.58.1,2.32-.33.73-.43,1.21-1.07,1.43-1.92l5.11-19.75c.07-.27.17-.47.31-.6.14-.13.26-.18.38-.15.23.06.39.31.49.75l5.74,24.29c.08.48.37.96.86,1.46.49.5.97.81,1.43.93l1.68.44c.73.19,1.46.06,2.18-.4.72-.45,1.18-1.09,1.39-1.9l8.94-34.56c.23-.89.14-1.7-.27-2.43ZM400.03,696.58c-2.24-3.82-5.62-6-10.15-6.54-3.38-.41-6.31.2-8.8,1.81s-4.46,3.93-5.92,6.96c-1.45,3.03-2.41,6.45-2.87,10.26-.47,3.85-.35,7.42.34,10.71.69,3.29,2.06,6,4.09,8.14,2.04,2.14,4.74,3.41,8.12,3.82,4.8.58,8.79-.89,11.96-4.42.52-.62.82-1.29.91-2.01s-.02-1.39-.33-2.03c-.31-.64-.78-1.16-1.41-1.56-.04,0-.06-.03-.05-.07-.45-.29-.95-.48-1.51-.54-.6-.07-1.18,0-1.75.21-.57.21-1.06.56-1.48,1.03-1.58,1.7-3.4,2.43-5.46,2.18-2.3-.28-3.99-1.71-5.07-4.3-1.08-2.59-1.36-6.01-.85-10.26.5-4.17,1.59-7.39,3.25-9.67s3.65-3.28,5.95-3c1.91.23,3.43,1.28,4.58,3.15.6,1,1.5,1.57,2.69,1.72.71.09,1.35,0,1.9-.25l.13-.04c.64-.29,1.15-.69,1.54-1.21.38-.52.62-1.11.7-1.79.1-.83-.07-1.6-.51-2.3ZM439.06,730.71l-.02-1.44c-.01-.88-.32-1.59-.91-2.15-.59-.55-1.32-.82-2.2-.8l-8.52.14c-.88.01-1.62-.27-2.21-.86-.59-.59-.89-1.31-.9-2.15l-.46-28.5c-.01-.84-.32-1.54-.9-2.12s-1.3-.85-2.14-.84l-1.86.03c-.8.01-1.5.32-2.09.9-.59.59-.88,1.3-.87,2.14l.58,36c.01.84.33,1.54.93,2.12.61.57,1.31.85,2.11.84l16.44-.27c.88-.01,1.61-.32,2.18-.9.57-.59.85-1.3.84-2.14ZM478.08,715.14l-3.12-24.64c-.09-.71-.46-1.29-1.1-1.74-.64-.44-1.34-.62-2.09-.52l-2.02.26c-.79.1-1.42.43-1.87.99-.45.56-.63,1.22-.54,1.97l3.16,24.94c.28,2.18.06,3.89-.65,5.13-.71,1.24-2.08,1.99-4.1,2.24-1.98.25-3.48-.12-4.5-1.12s-1.65-2.55-1.92-4.66l-3.19-25.12c-.09-.71-.45-1.29-1.07-1.74s-1.31-.62-2.06-.53l-2.02.26c-.83.11-1.47.44-1.9,1-.43.56-.6,1.22-.51,1.97l3.12,24.64c.61,4.8,2.27,8.25,4.97,10.35,2.71,2.1,6.08,2.89,10.13,2.38,4.01-.51,7.04-2.11,9.1-4.81,2.06-2.7,2.78-6.45,2.17-11.25ZM520.41,706.72l-.52-1.97c-.5-1.73-1.4-3.12-2.69-4.16-1.29-1.04-2.85-1.74-4.68-2.08-.08.02-.13-.03-.16-.14l.04-.07c1.14-1.17,1.83-2.64,2.09-4.4.25-1.76.13-3.59-.37-5.49-.74-2.78-2.47-4.75-5.2-5.91-2.73-1.16-6.16-1.19-10.3-.09l-9.05,2.4c-.66.17-1.16.55-1.5,1.11-.35.57-.43,1.18-.26,1.84l9.55,35.95c.17.66.55,1.15,1.13,1.47s1.2.39,1.86.22l9.28-2.46c4.76-1.26,7.99-3.35,9.7-6.27,1.71-2.92,2.07-6.23,1.08-9.94ZM559.77,692.71c-.91-2.22-2.17-3.89-3.79-5-1.62-1.11-3.3-1.83-5.06-2.15-1.75-.32-3.94-.57-6.56-.75-2.61-.14-4.57-.39-5.88-.74-1.31-.35-2.2-1.1-2.67-2.25-.42-1.04-.41-1.99.03-2.86.44-.87,1.2-1.53,2.28-1.97,1-.41,1.86-.6,2.59-.57.72.03,1.54.2,2.45.52.7.23,1.29.38,1.77.44.48.06.97.02,1.46-.14.52-.21.97-.53,1.36-.95l.75-.7c.45-.49.72-1.03.82-1.63.1-.6.04-1.18-.19-1.74-.24-.59-.6-1.05-1.08-1.38-1.74-1.19-3.64-1.85-5.7-1.98-2.06-.13-4.41.34-7.04,1.42-2.15.88-3.9,2.12-5.25,3.73-1.35,1.61-2.19,3.39-2.52,5.34-.33,1.95-.1,3.89.69,5.81.79,1.93,1.95,3.41,3.5,4.44s3.17,1.73,4.87,2.09c1.7.36,3.86.66,6.46.9,2.78.25,4.87.57,6.26.97,1.4.4,2.34,1.2,2.82,2.38.56,1.37.49,2.62-.22,3.75-.71,1.13-1.87,2.03-3.5,2.69-1.85.76-3.67.85-5.46.28-.69-.2-1.22-.3-1.62-.31s-.81.07-1.26.25c-.7.29-1.21.62-1.53,1.01l-.68.86c-.45.49-.72,1.03-.82,1.63-.1.6-.04,1.16.17,1.68.26.63.72,1.13,1.39,1.5,3.63,1.8,7.87,1.71,12.72-.27,2.52-1.03,4.57-2.4,6.17-4.11,1.59-1.71,2.59-3.62,3.01-5.73.41-2.11.16-4.28-.74-6.5ZM585.06,688.42c-.6-1.13-1.53-1.88-2.77-2.26-1.25-.38-2.43-.27-3.56.33-1.13.6-1.89,1.53-2.29,2.78-.4,1.26-.29,2.45.31,3.58.6,1.13,1.54,1.89,2.81,2.28s2.47.28,3.6-.32c1.13-.6,1.88-1.54,2.25-2.8s.25-2.46-.35-3.59ZM620.69,658.24c-.9-3.24-2.44-6.46-4.64-9.66-2.18-3.17-4.62-5.75-7.33-7.74-2.71-2-5.55-3.13-8.52-3.39s-5.86.57-8.66,2.5-4.6,4.32-5.41,7.17c-.8,2.86-.75,5.9.16,9.13.91,3.23,2.45,6.43,4.63,9.6,2.2,3.2,4.64,5.8,7.33,7.81,2.69,2.01,5.51,3.14,8.45,3.4,2.94.26,5.82-.58,8.62-2.5s4.62-4.31,5.45-7.17c.83-2.85.8-5.9-.1-9.14ZM660.81,635.7l-.06-1.4c-.06-.6-.26-1.09-.61-1.47-.3-.33-.68-.57-1.16-.73-.47-.16-.98-.24-1.52-.24-1.53.04-3.05-.17-4.56-.63-1.51-.46-2.79-1.01-3.85-1.64-1.06-.63-1.71-1.1-1.95-1.43-.05-.06-.13-.2-.24-.44s-.16-.53-.17-.9c0-4.5-1.35-8.24-4.07-11.23-1.54-1.68-3.35-2.98-5.45-3.88-2.1-.9-4.31-1.18-6.65-.83-2.34.35-4.57,1.49-6.7,3.43l-6.65,6.07c-.71.65-1.12,1.37-1.22,2.17-.11.8.07,1.45.53,1.96l24.91,27.3c.46.5,1.1.75,1.92.73.82-.02,1.59-.35,2.3-1l1.37-1.25c.68-.62,1.01-1.27.98-1.95-.03-.68-.28-1.29-.77-1.82l-5.62-6.16c-1.21-1.33-1.04-2.71.53-4.14.5-.46,1.05-.72,1.63-.8.58-.07,1.16.09,1.74.48,1.48.97,3.28,1.86,5.4,2.67,2.12.8,4.49,1.17,7.13,1.09.68.03,1.24-.16,1.68-.56.77-.7,1.15-1.83,1.13-3.39ZM687.38,600.54c-.91-3.84-3.53-7.6-7.84-11.3l-.55-.46c-.92-.77-1.87-1.07-2.85-.89-.98.17-1.94.83-2.89,1.96l-5.15,6.17c-.41.49-.59,1.05-.53,1.67.06.62.35,1.15.87,1.58l1.66,1.38c.52.44,1.11.57,1.76.42s1.5-.87,2.55-2.13l.08-.09c1.02-1.23,2.08-1.39,3.15-.5.21.18.51.48.89.9,2.28,2.63,2.45,5.12.5,7.45-1.72,2.06-3.99,2.75-6.82,2.09-2.83-.67-5.78-2.28-8.85-4.84-3.07-2.56-5.19-5.18-6.35-7.84-1.16-2.66-.89-5.02.83-7.08,1.05-1.26,2.17-1.97,3.34-2.13,1.18-.16,2.26-.02,3.23.43,1.49.78,2.61.72,3.35-.17l1.77-2.12c.41-.49.57-1.04.47-1.64-.1-.6-.39-1.11-.88-1.52-.96-.91-2.44-1.58-4.42-2.01-1.98-.43-4.1-.32-6.34.34s-4.26,2.06-6.05,4.21c-3.51,4.21-4.53,8.53-3.04,12.97,1.48,4.44,4.54,8.59,9.18,12.46s9.27,6.13,13.9,6.79c4.63.66,8.7-1.11,12.21-5.32,2.79-3.35,3.73-6.94,2.82-10.78ZM719.67,529.4l17.66-35.04-40.12,36.39,17.26,8.7-17.66,35.04,40.12-36.39-17.26-8.7ZM283.03,563.42v-41.06c0-13.23,11-23.87,24.21-22.93,11.71.86,20.88,10.74,20.88,22.48v41.95c0,11.75-9.17,21.62-20.88,22.48-.55.04-1.12.06-1.67.06h0c-12.43,0-22.54-10.31-22.54-22.99ZM289.74,563.42c0,9.37,7.67,16.92,17.01,16.24,8.2-.6,14.66-7.44,14.66-15.79v-41.95c0-8.35-6.46-15.19-14.66-15.79-9.34-.69-17.01,6.87-17.01,16.24v41.06ZM197.96,599.83c-.79-.09-1.43.1-1.93.56l-6.2,5.75c-.67.62-.98,1.27-.9,1.94s.46,1.38,1.17,2.15c1.44,1.55,3.06,2.24,4.85,2.05s3.37-.92,4.75-2.2c1.29-1.2,2.04-2.62,2.24-4.29.2-1.66-.41-3.27-1.86-4.83-.63-.67-1.33-1.05-2.12-1.14ZM522.17,563.42v-41.06c0-13.23,11-23.87,24.21-22.93,11.71.86,20.88,10.74,20.88,22.48v41.95c0,11.75-9.17,21.62-20.88,22.48-.55.04-1.12.06-1.67.06h0c-12.43,0-22.54-10.31-22.54-22.99ZM528.88,563.42c0,9.37,7.67,16.92,17.01,16.24,8.2-.6,14.66-7.44,14.66-15.79v-41.95c0-8.35-6.46-15.19-14.66-15.79-9.34-.69-17.01,6.87-17.01,16.24v41.06ZM657.9,300.46c1.68,4.23-1.42,8.83-5.97,8.83H198.37c-4.55,0-7.65-4.6-5.97-8.83,36.71-92.62,127.07-158.12,232.75-158.12s196.05,65.5,232.75,158.12ZM288.26,282.47c0-.72-.56-1.3-1.28-1.37-2.36-.23-3.66-1.13-5.36-2.31-2.32-1.62-5.22-3.63-10.63-3.63s-8.31,2.01-10.63,3.63c-1.98,1.38-3.42,2.37-6.64,2.37s-4.65-1-6.64-2.37c-2.33-1.62-5.22-3.63-10.63-3.63s-8.31,2.01-10.63,3.63c-1.7,1.18-3,2.08-5.36,2.32-.72.07-1.28.65-1.28,1.37v4.25c0,.8.68,1.44,1.48,1.38,4.48-.33,7.05-2.11,9.15-3.57,1.98-1.38,3.42-2.37,6.64-2.37s4.66,1,6.64,2.37c2.33,1.62,5.22,3.63,10.63,3.63s8.31-2.01,10.63-3.63c1.98-1.38,3.42-2.37,6.64-2.37s4.65,1,6.64,2.37c2.1,1.46,4.67,3.25,9.15,3.57.8.06,1.48-.58,1.48-1.38v-4.26ZM357.69,285.53l-11.43-14.78c-.72-.93-.06-2.27,1.12-2.27h6.78c1.17,0,1.83-1.35,1.12-2.27l-11.43-14.79c-.72-.93-.06-2.27,1.12-2.27h6.78c1.17,0,1.83-1.35,1.12-2.27l-19.37-25.06c-.56-.73-1.67-.73-2.23,0l-19.37,25.06c-.72.93-.06,2.27,1.12,2.27h6.78c1.17,0,1.83,1.35,1.12,2.27l-11.43,14.79c-.72.93-.06,2.27,1.12,2.27h6.78c1.17,0,1.83,1.35,1.12,2.27l-11.43,14.78c-.72.93-.06,2.27,1.12,2.27h48.45c1.17,0,1.83-1.35,1.12-2.27ZM467.03,285.53l-21.49-27.79c-.72-.93-.06-2.27,1.12-2.27h15.2c1.17,0,1.83-1.35,1.12-2.27l-21.49-27.79c-.72-.93-.06-2.27,1.12-2.27h15.2c1.17,0,1.83-1.35,1.12-2.27l-34.34-44.42c-.56-.73-1.67-.73-2.23,0l-34.34,44.42c-.72.93-.06,2.27,1.12,2.27h15.2c1.17,0,1.83,1.35,1.12,2.27l-21.49,27.79c-.72.93-.06,2.27,1.12,2.27h15.2c1.17,0,1.83,1.35,1.12,2.27l-21.49,27.79c-.72.93-.06,2.27,1.12,2.27h84.92c1.17,0,1.83-1.35,1.12-2.27ZM541.08,285.53l-11.43-14.78c-.72-.93-.06-2.27,1.12-2.27h6.78c1.17,0,1.83-1.35,1.12-2.27l-11.43-14.79c-.72-.93-.06-2.27,1.12-2.27h6.78c1.17,0,1.83-1.35,1.12-2.27l-19.37-25.06c-.56-.73-1.67-.73-2.23,0l-19.37,25.06c-.72.93-.06,2.27,1.12,2.27h6.78c1.17,0,1.83,1.35,1.12,2.27l-11.43,14.79c-.72.93-.06,2.27,1.12,2.27h6.78c1.17,0,1.83,1.35,1.12,2.27l-11.43,14.78c-.72.93-.06,2.27,1.12,2.27h48.45c1.17,0,1.83-1.35,1.12-2.27ZM611.64,275.16c-5.41,0-8.31,2.01-10.63,3.63-1.98,1.38-3.42,2.37-6.64,2.37s-4.65-1-6.64-2.37c-2.33-1.62-5.22-3.63-10.63-3.63s-8.31,2.01-10.63,3.63c-1.7,1.18-3,2.08-5.36,2.32-.72.07-1.28.65-1.28,1.37v4.25c0,.8.68,1.44,1.48,1.38,4.48-.33,7.05-2.11,9.15-3.57,1.98-1.38,3.42-2.37,6.64-2.37s4.66,1,6.64,2.37c2.33,1.62,5.22,3.63,10.63,3.63s8.31-2.01,10.63-3.63c1.98-1.38,3.42-2.37,6.64-2.37s4.65,1,6.64,2.37c2.1,1.46,4.67,3.25,9.15,3.57.8.06,1.48-.58,1.48-1.38v-4.26c0-.72-.56-1.3-1.28-1.37-2.36-.23-3.66-1.13-5.36-2.31-2.32-1.62-5.22-3.63-10.63-3.63ZM64.68,309.29h104.59c2.88,0,5.47-1.81,6.43-4.53,12.95-36.85,34.1-70.62,62.54-99.05,49.93-49.93,116.31-77.42,186.92-77.42s136.99,27.5,186.92,77.42c28.43,28.43,49.59,62.2,62.54,99.05.96,2.72,3.55,4.53,6.43,4.53h104.59c4.44,0,7.72-4.17,6.64-8.48C751.23,136.23,602.43,14.29,425.15,14.29S99.07,136.23,58.04,300.81c-1.07,4.31,2.2,8.48,6.64,8.48ZM512.98,707.95c-.42-1.58-1.35-2.7-2.78-3.36-1.44-.65-3.08-.73-4.94-.24l-2.15.57c-.93.25-1.53.56-1.8.94-.27.38-.27,1.08,0,2.08l1.72,6.49c.25.93.59,1.51,1.02,1.75.44.24,1.12.23,2.04-.01l2.2-.58c4.18-1.11,5.8-3.42,4.86-6.94l-.19-.7ZM306.61,681.73c-.07-.03-.18,0-.32.06-.14.07-.26.18-.35.31l-2.51,3.77-2.36,3.7c-.31.44-.57.91-.78,1.43-.5,1.22-.16,2.08,1.03,2.56l.89.36c1.15.47,1.94.17,2.38-.91.15-.37.3-.96.46-1.76l.88-4.37.86-4.32c.14-.46.09-.74-.17-.85ZM636.82,620.88c-1.19-1.3-2.61-2.06-4.27-2.28-1.66-.22-3.27.39-4.84,1.82-.68.62-1.07,1.33-1.16,2.11-.09.79.09,1.43.55,1.94l5.7,6.25c.62.68,1.26.99,1.93.92.67-.07,1.39-.45,2.16-1.15,1.57-1.43,2.26-3.04,2.09-4.83-.17-1.79-.89-3.38-2.16-4.77ZM501.86,698.11c2.24-.6,3.73-1.48,4.45-2.64.73-1.16.92-2.39.58-3.66-.29-1.08-1.01-1.83-2.18-2.25-1.17-.41-2.87-.32-5.11.27l-.46.12c-1.04.28-1.67.62-1.87,1.02-.2.41-.18,1.07.07,2l.94,3.54c.26.97.58,1.56.97,1.79.39.23,1.09.21,2.09-.06l.52-.14ZM609.87,652.83c-2.38-3.46-4.85-5.8-7.42-7.03-2.56-1.22-4.82-1.17-6.76.17-1.91,1.31-2.74,3.38-2.48,6.19.26,2.81,1.57,5.94,3.95,9.4,2.42,3.53,4.9,5.91,7.42,7.13,2.52,1.23,4.74,1.19,6.65-.13,1.94-1.34,2.81-3.41,2.6-6.23s-1.53-5.99-3.95-9.51ZM749.12,383.74c1.34.13.92.68,3.94.48,2.62-.18,3.2-.14,5.68-.38,1.93-.19,3.44-1.41,4.27-2.62,1.47-2.16,1.19-8.29.21-10.4-2.16-4.66-4.05-5.36-8.02-5.22-4.11.14-4.77-.8-6.19.71-1.43,1.52-.44,5.03-.44,7.97,0,.46-.58,9.36.56,9.47ZM647.05,508.5c4.02-7.68,7.65-15.59,10.86-23.72,1.67-4.23-1.43-8.82-5.98-8.82H198.36c-4.55,0-7.65,4.59-5.98,8.82,3.34,8.42,7.11,16.62,11.31,24.56,1.1,2.09,3.3,3.38,5.66,3.38h69.56c3.91-11.13,14.38-19.11,26.66-19.11.68,0,1.39.03,2.08.08,11.51.85,21.06,8.63,24.67,19.04h185.73c3.91-11.13,14.38-19.11,26.66-19.11.68,0,1.39.03,2.08.08,11.51.85,21.06,8.63,24.67,19.04h68.62c2.93,0,5.6-1.64,6.96-4.23ZM762.41,398.03c-2.06-1.35-4.18-1.32-7.73-1.54-1.21.04-4.63-.31-6.12.59-.6.34-.55,1.95-.32,3.58.33,2.29.54,5.9.45,8.31-.09,2.42-.58,7.9.31,8.53,1.59,1.13,5.93.07,8.76.13,3.72.08,6.05-1.94,7.73-4.01,2.25-2.78,1.32-8.25,1.27-9.34-.09-2.2-1.63-4.45-4.36-6.24ZM340.4,386.26c-1.52-4.58-3.68-11.94-5.22-16.5-.49-1.44-.91-3.44-1.84-2.13-.83,1.16-1.53,4.51-2.13,6.22-1.57,4.47-3.06,9.11-4.44,13.82-.63,2.15-4.2,11.09-2.66,12.56.75.72,2.15-.1,2.99-.06,1.31.06,2.6-.04,3.92-.19,1.27-.14,3.17-.19,4.43-.04.92.11,2.83.99,3.76.59,1.32-.56,5.85,1.25,4.75-3.33-.91-3.77-2.4-7.47-3.55-10.95ZM839.28,328.87l-18.14,129.38c-.46,3.28-3.27,5.73-6.59,5.73H38.79c-3.32,0-6.13-2.44-6.59-5.73l-18.14-129.38c-.56-4,2.55-7.57,6.59-7.57h812.04c4.04,0,7.15,3.57,6.59,7.57ZM132.31,419.23c-2.45-5.14-3.5-8.72-6.1-13.11-.81-1.36-1.26-2.55-2.29-4.33-1.35-2.35-2.38-2.67.24-4.16,1.8-1.02,3.65-3.27,6.33-8.53,3.57-6.99,3.79-21.22-.22-27.73-2.48-4.03-7.28-6.61-11.52-8.19-5.4-2.99-16.69-2.07-23.83-2.05-6.76.02-7.83-.23-16.6.21-2.97.15-7.15-.04-10.24.81-.94.26-1.09,2.2-1.51,3.24-1.31,3.24-.71,12.25-.71,12.25,0,0,.37,7.21.49,15.99-.58,2.64-.04,17.04.22,23.38.23,5.68.23,14.11.48,22.07.16,5.15,9.13,3.85,10.23,3.91,4.72.27,8.64-.19,13.62-.67,6.72-.65,6.39.01,6.99-7.17.19-2.25-.39-9.9-.52-14.8-.15-5.74-.15-5.31.89-5.35.72-.02,2.39,0,2.94-.02,1.53-.07,1.86-.23,2.9,2.56,2.79,7.44,5.36,16.78,7.84,22.45.8,1.83,1.31,2.56,3.96,2.56,2.8,0,13.12-.47,15.46-.66,1.73-.14,5.04-.3,5.15-1.21.59-4.81-2.47-7.8-4.21-11.44ZM175.05,423.37c-.72-8.03.03-16.09-.08-24.13-.05-3.8-.45-7.4-.28-11.2.18-4.08-.09-8.16-.29-12.23-.2-4.02-.39-13.49-.53-17.51-.21-5.8.85-7.18-3.81-7.11-3.55.05-9.55.29-13.09.23-3.15-.05-6.16-.44-9.31-.19-.83.07-2.59-.18-3.31.33-1.2.85-.69,2.68-.62,4.04.18,3.69-.21,7.37-.16,11.05.05,4.07.46,8.14.48,12.23.02,3.67.29,7.34.18,11.01-.15,5.17-.67,7.1-.37,10.77.36,4.44,0,5.54.24,8.29.54,6.05-.09,6.14.17,11.54.13,2.81-.39,5.41-.11,8.46.18,1.94.01,2.4,1.5,3.09,1.76.81,3.99.74,5.83.66,3.47-.16,7.59-.12,11.05-.26,3.34-.14,6.67.71,10,.62,1.79-.05,2.47.05,2.81-1.98.37-2.29-.08-5.4-.28-7.68ZM250.94,351.98c-1.17.02-7.15-.85-8.47.7-1.4,1.65-1.34,7.31-2.75,12.27-.57,1.98-1.49,7.52-2.94,12.03-.7,2.17-2.95,14.67-4.84,19.59-.93,2.08-2.26,1.22-2.83-.03-2.05-4.55-4.71-15.43-5.71-18.38-2.67-7.9-5.88-20.27-7.96-23.96-2.56-4.55-13.26-2.46-24.59-2.64-6.18-.09-9.6.04-10.18,2.21-.55,2.04.55,6.12,2.93,11,2.65,5.43,7.93,23.51,11.01,29.31,5.69,10.74,5.51,19.29,11.04,31.65,1.5,3.35,2.44,6.18,4.36,7.07,2.44,1.12,6.03-.2,9.46-.12,7.44.15,13.16,1.16,15.01-4.09,3.06-8.69,3.34-12.54,6.68-21.22,4.49-11.65,7.41-24.93,11.89-36.89,1.29-3.44,2.94-10.19,4.33-14.24,1.58-4.58-1.58-4.33-6.46-4.27ZM294.73,423.37c-.72-8.03.03-16.09-.08-24.13-.05-3.8-.45-7.4-.28-11.2.18-4.08-.09-8.16-.29-12.23-.2-4.02-.39-13.49-.53-17.51-.21-5.8.85-7.18-3.81-7.11-3.55.05-9.55.29-13.09.23-3.15-.05-6.16-.44-9.31-.19-.83.07-2.59-.18-3.31.33-1.2.85-.69,2.68-.62,4.04.18,3.69-.21,7.37-.16,11.05.05,4.07.46,8.14.48,12.23.02,3.67.29,7.34.18,11.01-.15,5.17-.67,7.1-.37,10.77.36,4.44,0,5.54.24,8.29.54,6.05-.09,6.14.17,11.54.13,2.81-.39,5.41-.11,8.46.18,1.94.01,2.4,1.5,3.09,1.76.81,3.99.74,5.83.66,3.47-.16,7.59-.12,11.05-.26,3.34-.14,6.67.71,10,.62,1.79-.05,2.47.05,2.81-1.98.37-2.29-.08-5.4-.28-7.68ZM386.65,425.79c-1.31-3.44-2.75-6.63-3.95-10.24-2.23-6.74-5.09-12.6-7.14-19.58-3.97-13.52-8.55-26.21-12.73-39.47-.33-1.06-1.06-5.59-5.61-4.86-1.94.31-13.42-.47-15.52.18-2.29.71-4.14-.21-6.49-.19-1.43.02-7.18-.61-8.56.38-1.46,1.06-2.5,6.99-3.35,9.58-1.98,6.07-4.14,11.95-6.18,17.99-2.28,6.76-4.23,14.06-6.54,20.84-2.32,6.83-4.81,13.47-7,20.46-.55,1.74-1.1,3.41-1.74,5.02-.49,1.23-1.62,3.21-1.74,4.76-.24,3.17,6.66,2.22,7.81,2.41.9.15,1.89.33,2.8.11.92-.22.95-.37,1.39-1.79,1.09-3.5,1.48-4.8,2.55-8.43.87-2.96,2.08-6.25,3.63-7.98,1.52-1.7,4.23-1.08,5.89-1.21,2.74-.22,6.1.1,8.83.15,2.42.05,5.82-.49,8.25-.51,1.03,0,2.06.23,3.09.01,1.13-.24,2.44-.93,3.56-.3,1.69.96,2.84,6.35,3.76,9.08,1.28,3.84,1.59,3.15,2.86,7.02,1.27,3.87,2.4,4.05,6.28,4.18,1.78.06,16.25-.49,18.03-.43.92.03,1.87-.12,2.79-.04.68.06,5.23.69,5.78-.51.97-2.12-.17-5.05-.77-6.62ZM463.27,375.86c-.14-3.82-.22-7.71-.24-13.7-.01-3.97.18-6.96.18-8.47,0-1.6-.92-1.61-2.84-1.59-1.97.03-4.84-.1-6.43-.25-3.51-.33-5.44-.42-5.44,2.34,0,.39.04,1.82.1,5.58.05,3.15.4,6.61.41,10.4,0,3.89-.33,8.13-.45,11.02-.31,7.16,1.6,12.77-4.42,5.69-2.91-3.42-5.29-7.69-8.39-10.91-4.44-4.63-1.4-3.19-5.44-7.4-3.78-3.94-6.3-9.29-9.75-13.58-2.29-2.84-3.96-2.69-6.69-2.82-3.74-.19-7.42-.79-12.7-.39-3.69,0-8.07-.4-8.07,4.18s-.14,10.09.31,14.8c.74,7.77-.02,16.42.38,23.68.56,10.31-.8,25.38-.73,36.06.02,2.71,5.96,2.18,10.34,2.15,1.13-.07,2.74.06,3.28-.83.9-1.49.28-4.7.25-8.28-.06-6.74-.66-12.95-.28-19.72.1-1.72-.47-9.21,2-5.58,2.21,3.25,4.31,5.26,5.77,7.65,2.43,3.98,2.14,2.04,5.39,6.21.91,1.17,1.99,2.35,3.13,3.76,2.52,3.12,4.38,5.7,5.86,7.81,3.12,4.46,3.17,7.29,5.56,8.43,1,.48,3.54.3,5.08.4,2.57.17,5.01.17,7.26.15,1.08,0,2.13-.03,3.12-.04,1.79-.02,3.9.32,5.46.28s3.64-.33,5.01-.74c3.16-.95,2.61-3.35,2.5-8.49-.07-3.08-.35-7.19-.43-12.66-.04-2.94,0-5.89.1-8.85.13-4.21.35-8.45.54-12.72.19-4.49.48-9.01.31-13.57ZM528.14,391.04c0-4.63,0-7.94,1.22-11.45,2.05-5.87,4.21-9.89,11.96-11.75,2.3-.55,6.12,1.86,8.6,3.88,2.18,1.77,3.41,4.44,4.66,7.13,1.17,2.51,3.34.81,5.78-.64,1.61-.96,5.33-1.69,6.04-3.85,1.33-4.02-4.79-10.72-6.6-13.38-3.35-4.92-7.74-7.23-12.47-9.65-4.32-2.22-7.67-2.45-12.25-2.12-4.77.33-8.97,1.69-13.45,3.57-4.48,1.88-10.26,5.88-13.61,9.91-7.16,8.59-9.93,22.23-9.19,34.13.73,11.63,6.21,21.3,12.92,29.28,7.97,9.48,22.17,10.62,32.62,7.73,5.18-1.43,10.06-3.78,14.25-7.76,2.04-1.94,3.73-3.85,5.14-6.48,1.1-2.05,3.87-5.32,2.15-7.69-1.5-2.07-2.79-4.34-4.27-6.4-2.09-2.9-2.69-1.86-4.93-.12-1.83,1.42-4.1,5.78-6.08,6.76-2.99,1.48-5.57,3.69-8.31,3.2-6.09-1.11-10.26-5-12.98-12.66-.92-2.58-1.22-7.38-1.22-11.63ZM636.57,415.25c-2.08-.46-4.25.69-6.31.83-2.52.18-5.06-.06-7.58.15-4.65.38-3.97.18-8.65.26-1.67.03-4.65.78-6.17-.09-1.86-1.05-.94-5.58-1.02-7.62-.22-5.64-.31-6.96-.77-12.59-.86-10.45.19-21.1-.86-31.48-.28-2.8-.27-5.67-.42-8.47-.08-1.39.59-4.06-.53-4.89-1.19-.88-4.77.08-6.07.1-2.37.05-4.78-.02-7.12-.42-3.79-.65-7.93-.79-11.85-.7-1.9-.09-5.23-.88-5.83,1.87-.45,2.07.55,4.77.66,6.88.16,2.95-.31,5.91-.18,8.83.21,4.8-.17,9.57.1,14.39.69,12.07-.07,24.23,1.06,36.26.29,3.09.17,6.24.35,9.35.07,1.15-.07,2.52.16,3.63,0,0,.26,1.4,1.22,1.59.7.14,1.6.31,2.3.35,4.96.32,1.72-.78,6.68-.19,5.55.66,10.9-.1,16.46-.43,5.84-.35,6.21-.17,12.06-.6,5.45-.4,11.27,1.16,16.67.14,2.08-.39,2.39-2.05,3.3-4.12.55-1.24,4.25-12.62,2.34-13.04ZM708.19,378.13c-.07-6-.55-6.21-.55-11.91,0-4.42,1.11-11.64-.34-13.62-.75-1.02-10.94-1.05-11.83,0-1.89,2.24-1.15,12.2-1.17,16.22-.04,6.6.47,12.63.92,18.54.24,3.1-.1,6.45-.06,10.03.02,2.09-.27,12.33-2.9,18.93-2.15,5.38-10.74,8.05-14.86,4.19-4.92-4.61-3.74-13.23-4.06-19.71-.38-7.78-1.09-14.55-.7-22.91.19-4-.47-8.28-.33-12.32.13-3.72.25-6.74.11-11.44-.1-3.64-7.44-3.23-11.5-2.82-1.55.15-9.31.71-10.99.87-1.29.13-8.12-.81-8.64.68-2.08,5.97-1.52,31.59-.55,40.56,1.39,12.91,1.55,27.86,14.26,36.27,4.94,3.27,15.73,4.7,22.95,4.7,5.9,0,15.91-.51,21.41-7.47,3.67-4.64,7.59-13.86,8.79-29.05.55-7.06.15-12.84.07-19.77ZM789.91,398.87c-2-4.72-5.96-8.23-10.47-10.27-.64-.29,4.13-2.6,5.98-5.2,3.04-4.28,2.98-9.67,2.48-14.27-.43-4.01-4.91-11.62-10.67-14.72-6.59-3.55-14.86-2.38-20.66-3.22-1.8-.26-1.17-.44-3.21-.52-1.27-.26.16-.23-1.11-.25-.91-.01-.9-.04-1.81-.04-.54,0-1.08.04-1.61.2-.97,0-1.91.02-2.77.08-2.51.17-3.74.07-6.16.4-3.42.47-5.14-.63-8.21-.58-3.39.06-11.77-.28-13.24,3.67-2.09,5.64-.73,32.96-.64,35.62.28,8.47.46,16.63.7,25.18.11,3.9-.13,12.03,1.04,15.66,1.03,3.17,9.82,2.28,18.38,2.16,7.93-.11,10.92.56,15.78.56,16.62,0,27.9-.96,33.77-7.24,2.81-3.01,4.6-6.65,5.17-10.54,1.11-7.62-.48-11.33-2.75-16.68ZM105.02,365.28c-1.33-.13-2.84.05-4.88-.03-2.75-.1-3.47.03-3.39,1.71.18,3.77-.19,4.39-.03,7.22.12,2.08-.22,2.01.08,6.89.21,3.56-.24,6.68.05,10.61.07.96,1.19.54,2.67.66,2.33.19,3.83.15,5.45-.02,1.6-.17,3.01-.14,3.86-.65,2.14-1.29,2.76-2.71,3.66-4.9.87-2.14,1.38-5.34,1.42-8.17.1-5.88-.89-7.94-2.03-10.02-1.62-2.96-4.47-3.06-6.86-3.29ZM261.33,143.63l-22.75-39.13c-.42-.71-.51-1.46-.29-2.24.22-.78.69-1.37,1.41-1.79l9.85-5.72c4.5-2.62,8.54-3.68,12.11-3.2,3.58.48,6.24,2.24,8,5.27,1.2,2.06,1.93,4.17,2.2,6.32.27,2.15-.08,4.1-1.04,5.84l-.03.1c.07.13.15.17.24.12,2.26-.19,4.31.13,6.16.94,1.85.81,3.35,2.15,4.49,4.02l1.25,2.15c2.35,4.04,2.99,8.04,1.92,12.01-1.07,3.97-4.19,7.46-9.37,10.47l-10.1,5.87c-.72.42-1.46.53-2.25.34-.79-.19-1.39-.64-1.8-1.36ZM258.39,112.15c2.44-1.42,3.9-2.93,4.38-4.53.48-1.6.31-3.09-.5-4.48-.68-1.18-1.78-1.82-3.28-1.94-1.5-.11-3.47.54-5.91,1.96l-.5.29c-1.14.66-1.76,1.26-1.87,1.8-.11.54.13,1.32.72,2.33l2.24,3.85c.61,1.05,1.18,1.65,1.72,1.79.53.14,1.34-.11,2.44-.74l.57-.33ZM271.56,130.59c4.54-2.64,5.7-5.88,3.48-9.71l-.44-.76c-1-1.72-2.45-2.74-4.35-3.05-1.89-.3-3.85.13-5.87,1.3l-2.33,1.36c-1.01.59-1.61,1.15-1.81,1.68s.03,1.35.66,2.44l4.11,7.07c.59,1.01,1.17,1.58,1.76,1.72.59.14,1.38-.09,2.39-.67l2.4-1.39ZM328.49,114.15c-1.09.42-2.04.53-2.85.32-.81-.21-1.64-.85-2.47-1.94l-2.47-3.35c-.76-1.17-1.46-1.98-2.08-2.44-.62-.46-1.5-.48-2.64-.04l-4.29,1.66c-.77.3-1.32.73-1.65,1.3-.33.57-.46,1.29-.38,2.14.07.86.12,1.39.14,1.59l.43,4.14c.11,1.37-.06,2.4-.52,3.1-.46.7-1.21,1.25-2.26,1.65l-1.43.55c-1,.39-1.89.51-2.67.37-.79-.14-1.41-.8-1.86-1.98-.23-.59-.38-1.26-.46-2.01l-5.85-43.06c-.12-1,.07-1.98.58-2.96.51-.98,1.22-1.64,2.12-2l3.47-1.34c.95-.37,1.95-.36,2.98.02,1.03.38,1.84.98,2.42,1.8l24.76,35.9c.36.54.64,1.06.84,1.56.79,2.04,0,3.52-2.36,4.43l-1.5.58ZM308.86,90.12l-2.85-4.53c-.26-.53-.54-.73-.86-.61-.09.04-.17.14-.23.32-.06.18-.08.37-.05.57l.93,5.43,1.01,5.24c.09.64.26,1.28.51,1.92.58,1.5,1.59,1.97,3.05,1.4l1.09-.42c1.41-.54,1.86-1.47,1.35-2.79-.17-.45-.53-1.1-1.06-1.94l-2.88-4.6ZM366.73,100.34c.21,1,.03,1.92-.54,2.76-.57.84-1.33,1.36-2.28,1.56l-2.14.45c-1,.21-1.92.04-2.75-.5-.84-.54-1.36-1.32-1.57-2.32l-1.46-6.93c-.09-.43-.17-.92-.24-1.48-.07-.56-.17-1.17-.31-1.84-.5-2.38-1.43-4.42-2.78-6.13l-18.92-23.54c-.26-.29-.44-.65-.53-1.08-.14-.67.02-1.27.48-1.82.46-.54,1.07-.9,1.83-1.06l3.93-.83c.86-.18,1.61-.04,2.25.42s1.43,1.24,2.36,2.34l11.13,12.8c.6.72.99,1.06,1.18,1.02.09-.02.19-.16.28-.43.09-.27.2-.59.32-.96l4.94-16.19c.43-1.48.83-2.54,1.2-3.16.37-.62.98-1.03,1.83-1.21l4.14-.87c.76-.16,1.47-.06,2.11.3.65.36,1.04.87,1.18,1.54.04.19.01.54-.08,1.06l-7.92,29.65c-.48,1.74-.45,3.9.1,6.47.16.76.33,1.44.5,2.02.17.59.31,1.09.4,1.52l1.36,6.43ZM449.52,99.54c-1.17-.06-2.08-.35-2.73-.87-.66-.52-1.14-1.45-1.47-2.78l-.89-4.06c-.22-1.38-.53-2.4-.91-3.08-.38-.68-1.18-1.05-2.39-1.11l-4.59-.23c-.83-.04-1.51.13-2.04.52-.53.39-.94.99-1.22,1.8-.29.81-.46,1.32-.52,1.51l-1.29,3.96c-.46,1.29-1.04,2.17-1.74,2.62-.71.45-1.62.65-2.73.59l-1.53-.08c-1.07-.05-1.93-.3-2.59-.75-.66-.45-.96-1.3-.89-2.57.03-.63.16-1.31.39-2.03l12.18-41.71c.29-.96.87-1.78,1.73-2.47s1.78-1.01,2.75-.96l3.72.19c1.02.05,1.93.46,2.71,1.23.79.77,1.28,1.65,1.48,2.63l8,42.87c.11.64.16,1.23.13,1.76-.11,2.19-1.43,3.22-3.96,3.09l-1.6-.08ZM441.38,69.6l-.76-5.3c-.02-.59-.2-.89-.54-.9-.1,0-.21.06-.34.2-.13.14-.22.31-.28.5l-1.37,5.34-1.21,5.2c-.18.62-.28,1.28-.32,1.96-.08,1.6.66,2.44,2.21,2.52l1.17.06c1.51.08,2.29-.59,2.37-2,.02-.48-.04-1.22-.18-2.2l-.75-5.37ZM505.06,103.09c.17.59.2,1.14.08,1.66-.14.62-.48,1.16-1.04,1.64l-1.35,1.05c-1.54,1.11-2.93,1.52-4.16,1.25-.71-.16-1.29-.58-1.74-1.28-1.92-2.57-3.23-5.19-3.91-7.85-.68-2.67-1.06-5.08-1.13-7.24-.01-.85-.26-1.54-.74-2.07-.48-.53-1.13-.88-1.93-1.06-2.52-.56-4.01.23-4.49,2.37l-2.19,9.91c-.19.86-.61,1.53-1.27,2.04-.66.5-1.54.63-2.63.39l-2.21-.49c-1.14-.25-2.01-.78-2.6-1.58-.6-.8-.8-1.61-.62-2.42l9.71-43.91c.18-.81.71-1.44,1.58-1.89.87-.45,1.88-.56,3.02-.3l10.69,2.36c3.42.76,6.12,2.18,8.1,4.26,1.98,2.08,3.26,4.48,3.83,7.2.57,2.72.56,5.43-.04,8.14-1.06,4.8-3.83,8.77-8.32,11.92-.36.27-.62.54-.78.8-.16.26-.25.44-.27.54-.15.46-.17,1.45-.05,2.94.12,1.5.47,3.16,1.07,4.98.59,1.83,1.45,3.49,2.56,4.98.38.53.66,1.09.83,1.68ZM497.45,78.68c1.66-1.43,2.74-3.26,3.23-5.49.46-2.09.22-4.04-.73-5.84-.95-1.8-2.68-2.98-5.2-3.54-1.09-.24-2.06-.13-2.91.33-.85.46-1.36,1.09-1.54,1.9l-2.22,10.05c-.24,1.09-.09,1.95.44,2.56.54.62,1.42,1.06,2.66,1.34,2.52.56,4.61.12,6.27-1.31ZM524.48,116.35c-.99-.4-1.68-1.07-2.07-1.99-.39-.92-.38-1.88.03-2.87l16.52-40.56c.38-.95,1.03-1.6,1.94-1.97.91-.36,1.86-.35,2.85.06l18.32,7.46c.95.39,1.61,1.04,2,1.96.39.92.4,1.83.03,2.73l-.74,1.83c-.37.9-1.01,1.53-1.92,1.9-.91.37-1.84.35-2.79-.03l-9.67-3.94c-.86-.35-1.77-.31-2.73.11-.96.42-1.62,1.09-1.99,1.99l-1.32,3.25c-.35.86-.32,1.76.08,2.71.4.95,1.03,1.6,1.89,1.95l5.81,2.37c.95.39,1.61,1.05,1.99,1.99.38.94.38,1.86.02,2.77l-.74,1.83c-.37.9-1.01,1.55-1.93,1.93-.92.39-1.85.39-2.8,0l-5.81-2.37c-.9-.37-1.81-.36-2.73.03-.92.39-1.57,1.05-1.96,2l-2.15,5.27c-.35.86-.32,1.76.08,2.71.4.95,1.03,1.6,1.88,1.95l9.67,3.94c.95.39,1.61,1.05,1.99,1.99.38.94.38,1.86.02,2.77l-.66,1.62c-.4.99-1.07,1.68-1.99,2.07-.92.39-1.85.39-2.8,0l-18.32-7.46ZM584.66,146.8c-1-.61-1.66-1.3-1.99-2.07-.33-.77-.32-1.82.03-3.14l1.15-4c.46-1.31.68-2.36.67-3.14-.01-.78-.54-1.48-1.58-2.11l-3.93-2.39c-.71-.43-1.39-.6-2.04-.51-.65.09-1.3.42-1.93,1-.64.58-1.03.94-1.17,1.08l-3.02,2.86c-1.02.92-1.94,1.41-2.78,1.47-.84.06-1.73-.2-2.69-.78l-1.31-.8c-.91-.56-1.55-1.19-1.92-1.9s-.22-1.6.44-2.68c.33-.54.77-1.07,1.31-1.59l30.58-30.87c.71-.71,1.61-1.15,2.7-1.35,1.09-.19,2.04-.04,2.88.47l3.18,1.94c.87.53,1.47,1.32,1.8,2.38.33,1.05.34,2.06.04,3.02l-13.38,41.51c-.21.62-.45,1.15-.72,1.61-1.14,1.87-2.79,2.15-4.95.83l-1.37-.83ZM591.77,116.59l1.86-5.02c.26-.52.25-.88-.04-1.05-.08-.05-.21-.05-.39.02s-.34.16-.48.3l-3.74,4.05-3.54,4c-.46.46-.86.99-1.21,1.57-.83,1.37-.59,2.46.74,3.27l1,.61c1.29.78,2.3.57,3.04-.63.25-.42.55-1.09.89-2.02l1.9-5.08Z"></path></svg>